<?xml version="1.0" standalone="no"?><!DOCTYPE svg PUBLIC "-//W3C//DTD SVG 1.1//EN" "http://www.w3.org/Graphics/SVG/1.1/DTD/svg11.dtd"><svg t="1511069844725" class="icon" style="" viewBox="0 0 1024 1024" version="1.1" xmlns="http://www.w3.org/2000/svg" p-id="1060" xmlns:xlink="http://www.w3.org/1999/xlink" width="64" height="64"><defs><style type="text/css"></style></defs><path d="M506.957 509.685c-11.664 0-24.046-2.735-40.121-8.851-4.875-1.856-11.934-4.507-20.782-7.809-59.817-22.479-204.576-68.005-285.907-107.302-5.785-2.799 0 0 0 0-8.022-4.115-7.584-10.275-1.529-12.685 0 0-5.076 1.911 0 0 47.009-18.020 96.018-27.601 157.075-50.525 54.061-20.306 105.147-39.486 141.623-53.44 0.237-0.11 1.794-0.707 1.794-0.707 24.531-10.005 40.777-16.654 54.607-16.654 5.81 0 14.349 0.934 28.94 8.346 0.722 0.372 1.529 0.707 2.283 1.040 36.81 15.34 95.422 38.235 157.41 62.484 62.356 24.368 140.624 47.219 140.624 47.219 8.434 3.391 8.557 8.902 0 12.47 0 0-301.098 119.024-293.121 115.399 0.001-0.002-30.032 11.011-42.928 11.011v0zM879.857 404.77c21.429-13.442 71.539-24.218-2.996-57.027-85.612-35.67-243.671-100.902-319.025-132.284-16.675-8.444-30.539-11.97-44.097-11.97-20.701 0-40.585 8.211-68.391 19.559-77.653 29.721-210.073 84.133-298.69 118.113-67.933 25.743-63.875 44.969-1.062 75.297 94.103 45.467 269.531 115.286 309.327 130.397 19.013 7.222 35.561 11.030 52.017 11.030 18.001 0 35.888-4.547 56.827-14.070 36.131-16.434 117.971-51.783 268.049-114.252v84.801c0 9.194-13.265 21.915-15.053 25.751l-14.060 14.167c-6.41 6.434-6.434 16.834 0.006 23.394l39.357 39.718c6.415 6.465 30.871 6.571 37.389 0l25.206-39.718c6.415-6.465 6.412-16.993 0.007-23.387l-30.572-39.961v-113.034l5.605 3.471zM725.946 739.81c-18.699 17.387-86.143 85.382-204.954 85.382-127.879 0-206.699-67.419-226.084-84.801v-155.427c44.994 17.191 139.405 43.795 142.94 45.041 25.867 9.305 52.906 14.188 78.219 14.188h0.001c25.541 0 47.98-4.97 66.758-14.817 30.539-12.761 120.551-51.629 135.99-58.554v169.568l7.139-0.583zM752.141 523.538c-4.751-3.152-10.736-3.702-15.957-1.436-37.613 16.245-150.517 55.12-166.963 61.969-0.512 0.183-0.975 0.45-1.437 0.663-13.984 7.463-31.398 11.239-51.699 11.239h-0.001c-21.17 0-44.926-4.33-67.084-12.284-17.978-6.223-35.124-12.016-51.556-17.569-45.343-15.34-84.531-28.599-120.514-43.377-5.211-2.141-11.125-1.53-15.801 1.634-4.691 3.153-8.629 12.508-8.629 18.164v211.954c0 4.398 2.844 15.267 5.886 18.427 3.677 3.865 91.994 94.602 254.866 94.602 151.891 0 238.265-90.862 241.878-94.753 2.921-3.152 6.061-13.959 6.061-18.295v-211.954c0.002-5.694-4.3-15.87-9.031-19.009v0z" p-id="1061" fill="#ffffff"></path></svg>