<?xml version="1.0" standalone="no"?><!DOCTYPE svg PUBLIC "-//W3C//DTD SVG 1.1//EN" "http://www.w3.org/Graphics/SVG/1.1/DTD/svg11.dtd"><svg t="1511070045191" class="icon" style="" viewBox="0 0 1024 1024" version="1.1" xmlns="http://www.w3.org/2000/svg" p-id="3375" xmlns:xlink="http://www.w3.org/1999/xlink" width="64" height="64"><defs><style type="text/css"></style></defs><path d="M322.112 252.544a35.648 35.648 0 1 1 0-71.296h218.56a35.584 35.584 0 1 1 0 71.296H322.112z m365.44 145.984c0 19.392-13.568 35.072-30.272 35.072H192.384c-16.64 0-30.208-15.68-30.208-35.072 0-19.328 13.504-35.072 30.208-35.072h464.96c16.64 0 30.144 15.744 30.144 35.072z m0 179.904c0 19.456-13.568 35.072-30.272 35.072H192.384c-16.64 0-30.208-15.616-30.208-35.072 0-19.456 13.504-35.072 30.208-35.072h464.96c16.64 0 30.144 15.616 30.144 35.072z m0 179.84c0 19.456-13.568 35.136-30.272 35.136H192.384c-16.64 0-30.208-15.68-30.208-35.136 0-19.392 13.504-35.072 30.208-35.072h464.96c16.64 0 30.144 15.68 30.144 35.072z m241.28 254.336H84.48c-46.592 0-84.48-37.696-84.48-84.16V84.224C0 37.696 37.76 0 84.48 0h724.864c31.104 0 56.32 25.152 56.32 56.128v747.392c0 15.616-0.128 52.672-37.44 53.696-39.488 1.024-39.744-38.08-39.744-53.696V108.288a37.12 37.12 0 0 0-37.12-37.12H105.152a37.12 37.12 0 0 0-37.12 37.12v796.16c0 20.48 16.576 37.056 37.12 37.056h780.352a56.192 56.192 0 0 0 56.32-56.128V267.264c0-15.744-2.944-50.88 33.28-51.904 38.912-1.088 38.08 35.968 38.08 51.2v661.888c0 46.464-37.76 84.16-84.416 84.16z" p-id="3376" fill="#ffffff"></path></svg>