<?xml version="1.0" standalone="no"?><!DOCTYPE svg PUBLIC "-//W3C//DTD SVG 1.1//EN" "http://www.w3.org/Graphics/SVG/1.1/DTD/svg11.dtd"><svg t="1511069948587" class="icon" style="" viewBox="0 0 1024 1024" version="1.1" xmlns="http://www.w3.org/2000/svg" p-id="2196" xmlns:xlink="http://www.w3.org/1999/xlink" width="64" height="64"><defs><style type="text/css"></style></defs><path d="M852.48 218.88h-71.68v-71.68a74.3424 74.3424 0 0 0-74.24-74.24H317.44a74.3424 74.3424 0 0 0-74.24 74.24v71.68h-71.68a122.88 122.88 0 0 0-122.88 122.88v486.4a122.88 122.88 0 0 0 122.88 122.88h680.96a122.88 122.88 0 0 0 122.88-122.88v-486.4a122.88 122.88 0 0 0-122.88-122.88z m-558.08-71.68a23.0912 23.0912 0 0 1 23.04-23.04h389.12a23.04 23.04 0 0 1 23.04 23.04v71.68h-435.2z m-122.88 122.88h680.96a71.68 71.68 0 0 1 71.68 71.68v120.32h-824.32v-120.32a71.68 71.68 0 0 1 71.68-71.68z m680.96 629.76h-680.96a71.68 71.68 0 0 1-71.68-71.68v-314.88h824.32v314.88a71.68 71.68 0 0 1-71.68 71.68z" fill="#ffffff" p-id="2197"></path></svg>