<?xml version="1.0" standalone="no"?><!DOCTYPE svg PUBLIC "-//W3C//DTD SVG 1.1//EN" "http://www.w3.org/Graphics/SVG/1.1/DTD/svg11.dtd"><svg t="1511084094956" class="icon" style="" viewBox="0 0 1356 1024" version="1.1" xmlns="http://www.w3.org/2000/svg" p-id="7638" xmlns:xlink="http://www.w3.org/1999/xlink" width="84.75" height="64"><defs><style type="text/css"></style></defs><path d="M720.918156 721.64064l-147.988711-29.621825c2.167451-16.737535 3.732832-32.993415 4.575729-48.406397l101.388523-69.478833C696.47413 623.74412 710.201317 674.197554 720.918156 721.64064L720.918156 721.64064 720.918156 721.64064zM599.420508 406.276576l-49.971778 34.317968c4.575729 11.800564 8.91063 24.082785 12.643462 37.569144l85.373471 17.098777c-13.606773-29.862653-28.899341-58.64158-46.118532-85.01223C600.985889 409.648166 600.263405 408.203198 599.420508 406.276576L599.420508 406.276576 599.420508 406.276576zM674.197554 560.526811c-6.14111-16.737535-12.763876-33.475071-19.868297-49.851364l-88.624647-17.821261c9.031044 37.809972 14.208843 82.001881 12.643462 133.298213L674.197554 560.526811 674.197554 560.526811 674.197554 560.526811zM418.920038 325.117592c-1.685795 4.575729-2.76952 9.5127-2.76952 14.810913 0 16.617121 9.271872 30.825964 22.878645 38.0508-1.444967 4.936971-2.408278 9.994356-2.408278 15.412982 0 30.344309 24.082785 55.029163 53.945437 55.029163 21.554092 0 40.097836-13.004704 48.647225-31.668862 1.685795 3.492004 3.37159 6.984008 4.936971 10.716839l49.610536-34.07714c-1.083725-2.528692-1.926623-4.455315-2.287865-5.177799-3.130762-6.622766-5.779868-13.245532-8.067733-19.988711 6.14111 3.612418 13.245532 5.779868 20.831609 5.779868 23.360301 0 42.265287-19.386642 42.265287-43.108184 0-23.841957-18.904986-43.108184-42.265287-43.108184-11.800564 0-22.39699 4.936971-30.103481 12.88429 4.575729-62.976482 45.516463-119.571025 109.456256-151.360301 59.002822-29.380997 125.591722-23.962371 177.971778 8.188147-52.018815-74.054563-150.156162-101.388523-233.121355-60.086548-48.647225 24.203198-82.122295 67.070555-96.571966 115.958608-0.240828-36.605833 9.633114-68.515522 37.207902-98.257761 4.334901-4.575729 8.91063-9.151458 13.847601-13.365945 49.73095-43.710254 115.597366-55.751646 174.238946-38.171214C688.406397 5.298213 586.656632 4.214487 516.696143 65.746002c-40.21825 35.281279-62.01317 84.289746-64.541863 134.381938-33.113829-50.453434-94.404516-77.426152-155.695202-62.494826-70.442145 17.098777-116.560677 83.567262-111.864534 154.852305 16.015052-46.118532 53.825024-83.206021 103.917215-95.367827 60.809031-14.810913 121.497648 11.439323 154.731891 61.049859-47.202258-18.904986-101.629351-18.42333-150.637817 6.381938-82.724365 41.783631-121.618062 137.633114-95.969897 224.933208 7.104421-61.892756 43.710254-118.968956 102.592662-148.590781C337.761054 321.38476 379.785513 316.929445 418.920038 325.117592L418.920038 325.117592 418.920038 325.117592zM791.119473 844.222013l68.635936-13.727187c-0.963311-7.826905-1.685795-15.292568-2.167451-22.39699l-46.96143-32.270931C802.438382 798.825964 796.056444 822.186265 791.119473 844.222013L791.119473 844.222013 791.119473 844.222013zM870.713076 713.813735l-23.239887-15.894638c-0.481656 0.842897-0.722484 1.565381-0.963311 1.806209-7.947319 12.28222-15.05174 25.648166-21.433678 39.495767l39.616181-7.947319C866.498589 725.01223 868.425212 719.232361 870.713076 713.813735L870.713076 713.813735 870.713076 713.813735zM821.945437 746.325494c-3.251176 7.586077-6.381938 15.292568-9.151458 23.119473l44.432738 30.464722c-0.722484-23.841957 1.685795-44.19191 5.900282-61.892756L821.945437 746.325494 821.945437 746.325494 821.945437 746.325494zM774.261524 538.852305c27.213547-8.188147 57.798683-2.528692 80.797742 17.700847 2.287865 2.047037 4.455315 4.094073 6.381938 6.261524 12.763876 13.727187 17.339605 28.5381 17.219191 45.516463-6.74318-22.637817-22.276576-42.626529-44.793979-53.825024-38.532455-19.145814-84.048918-6.502352-108.252117 27.815616 24.323612-14.931326 55.269991-17.339605 82.603951-3.732832 29.621825 14.690499 48.647225 41.061148 50.814675 70.201317-3.492004-3.732832-8.549389-6.020696-13.968015-6.020696-10.837253 0-19.627469 8.91063-19.627469 19.988711 0 11.078081 8.790216 19.988711 19.627469 19.988711 3.492004 0 6.74318-1.083725 9.633114-2.649106-1.083725 3.130762-2.287865 6.14111-3.732832 9.271872-0.120414 0.361242-0.481656 1.324553-1.083725 2.408278l22.999059 15.774224c0.722484-1.685795 1.565381-3.251176 2.287865-4.936971 3.973659 8.669802 12.643462 14.690499 22.637817 14.690499 13.847601 0 24.925682-11.318909 24.925682-25.527752 0-2.408278-0.481656-4.936971-1.083725-7.224835 6.261524-3.37159 10.596425-9.994356 10.596425-17.700847 0-2.408278-0.481656-4.696143-1.324553-6.863594 18.182502-3.732832 37.689558-1.685795 55.631232 7.224835 27.213547 13.727187 44.312324 40.338664 47.5635 68.876764 11.920978-40.459078-6.14111-84.891816-44.553151-104.278457-22.758231-11.439323-48.045155-11.680151-69.960489-2.889934 15.412982-22.999059 43.58984-35.160865 71.766698-28.417686 23.239887 5.659454 40.699906 22.999059 48.165569 44.312324 2.167451-33.113829-19.145814-63.939793-51.898401-71.887112-28.417686-6.984008-56.835372 5.53904-72.248354 29.019755-1.204139-23.239887-11.318909-45.998119-29.862653-62.374412C853.373471 511.39793 806.171214 511.879586 774.261524 538.852305L774.261524 538.852305 774.261524 538.852305zM881.791157 919.721543c-10.716839-30.585136-17.580433-58.280339-21.19285-82.844779l-70.923801 14.208843c-1.565381 7.345249-3.010348 14.449671-4.334901 21.313264l67.672625 46.35936c-3.853246-0.120414-7.826905-0.240828-11.800564-0.361242L783.894638 879.262465c-2.528692 14.329257-4.455315 27.213547-5.900282 38.0508-8.067733-0.120414-16.376294-0.120414-24.56444-0.120414-3.010348-27.574788-8.308561-69.840075-17.339605-119.811853L556.19191 920.56444c-8.91063 0.361242-17.580433 0.842897-26.250235 1.324553l203.49953-139.439323c-2.76952-14.810913-5.779868-30.223895-9.271872-45.998119l-153.046096-30.70555c-9.271872 63.337723-28.297272 135.465663-59.84572 217.106303-131.973659 7.706491-220.959548 22.156162-220.959548 38.652869 0 24.684854 197.117592 44.553151 440.233302 44.553151 243.11571 0 440.112888-19.988711 440.112888-44.553151C1170.664158 942.238946 1050.250235 925.983067 881.791157 919.721543L881.791157 919.721543 881.791157 919.721543zM881.791157 919.721543" p-id="7639" fill="#8a8a8a"></path></svg>