<?xml version="1.0" standalone="no"?><!DOCTYPE svg PUBLIC "-//W3C//DTD SVG 1.1//EN" "http://www.w3.org/Graphics/SVG/1.1/DTD/svg11.dtd"><svg t="1511084015923" class="icon" style="" viewBox="0 0 1024 1024" version="1.1" xmlns="http://www.w3.org/2000/svg" p-id="6915" xmlns:xlink="http://www.w3.org/1999/xlink" width="64" height="64"><defs><style type="text/css"></style></defs><path d="M661.333333 234.666667c46.933333 0 85.333333-38.4 85.333334-85.333334s-38.4-85.333333-85.333334-85.333333-85.333333 38.4-85.333333 85.333333 38.4 85.333333 85.333333 85.333334zM213.333333 512C96 512 0 608 0 725.333333s96 213.333333 213.333333 213.333334 213.333333-96 213.333334-213.333334-96-213.333333-213.333334-213.333333z m0 362.666667c-83.2 0-149.333333-66.133333-149.333333-149.333334s66.133333-149.333333 149.333333-149.333333 149.333333 66.133333 149.333334 149.333333-66.133333 149.333333-149.333334 149.333334z m247.466667-424.533334l100.266667-102.4 32 32c53.333333 55.466667 128 87.466667 215.466666 87.466667v-85.333333c-64 0-117.333333-23.466667-155.733333-61.866667l-83.2-81.066667c-12.8-14.933333-34.133333-25.6-57.6-25.6s-44.8 8.533333-59.733333 25.6l-117.333334 117.333334c-14.933333 14.933333-25.6 36.266667-25.6 59.733333 0 23.466667 10.666667 44.8 25.6 61.866667L469.333333 597.333333v213.333334h85.333334V544l-93.866667-93.866667zM810.666667 512c-117.333333 0-213.333333 96-213.333334 213.333333s96 213.333333 213.333334 213.333334 213.333333-96 213.333333-213.333334-96-213.333333-213.333333-213.333333z m0 362.666667c-83.2 0-149.333333-66.133333-149.333334-149.333334s66.133333-149.333333 149.333334-149.333333 149.333333 66.133333 149.333333 149.333333-66.133333 149.333333-149.333333 149.333334z" fill="#8a8a8a" p-id="6916"></path></svg>