<?xml version="1.0" standalone="no"?><!DOCTYPE svg PUBLIC "-//W3C//DTD SVG 1.1//EN" "http://www.w3.org/Graphics/SVG/1.1/DTD/svg11.dtd"><svg t="1511083889801" class="icon" style="" viewBox="0 0 1024 1024" version="1.1" xmlns="http://www.w3.org/2000/svg" p-id="6063" xmlns:xlink="http://www.w3.org/1999/xlink" width="64" height="64"><defs><style type="text/css"></style></defs><path d="M584.32 314.432c0-41.856-32.64-75.264-72.32-75.264-39.68 0-72.32 33.408-72.32 75.264 0 41.856 32.64 75.328 72.32 75.328 39.68 0 72.32-33.472 72.32-75.328z m-59.776 654.336a455.296 455.296 0 0 1-320.832-119.296 24.96 24.96 0 1 1 33.728-36.864 405.376 405.376 0 0 0 275.328 106.432v-0.192h11.072a407.04 407.04 0 1 0-386.624-247.552 24.96 24.96 0 1 1-45.952 19.584 456.96 456.96 0 1 1 628.864 227.968h219.392c14.144 0 25.6 11.584 25.6 26.176v-2.368a25.664 25.664 0 0 1-25.6 26.112H524.544zM389.824 314.432c0-69.12 54.72-125.184 122.176-125.184s122.24 56 122.24 125.184c0 69.12-54.784 125.248-122.24 125.248-67.456 0-122.24-56.064-122.24-125.248z m0 417.408c0-69.12 54.72-125.248 122.176-125.248s122.24 56.064 122.24 125.248c0 69.12-54.784 125.184-122.24 125.184-67.456 0-122.24-56.064-122.24-125.184z m194.432 0c0-41.856-32.64-75.328-72.256-75.328-39.68 0-72.32 33.472-72.32 75.328S472.32 807.04 512 807.04c39.68 0 72.32-33.408 72.32-75.264z m-275.84-330.88c69.12 0 125.184 54.72 125.184 122.176s-56.064 122.176-125.248 122.176c-69.12 0-125.184-54.72-125.184-122.24 0-67.392 56.064-122.112 125.184-122.112z m0 194.432c41.792 0 75.264-32.64 75.264-72.32 0-39.552-33.472-72.192-75.328-72.192s-75.264 32.64-75.264 72.256c0 39.68 33.408 72.256 75.264 72.256z m407.232-194.432c69.12 0 125.184 54.72 125.184 122.176s-56.064 122.176-125.184 122.176-125.248-54.72-125.248-122.24c0-67.392 56.064-122.112 125.248-122.112z m0 194.432c41.856 0 75.264-32.64 75.264-72.32 0-39.552-33.408-72.192-75.264-72.192-41.856 0-75.328 32.64-75.328 72.256 0 39.68 33.472 72.256 75.328 72.256z" fill="#8a8a8a" p-id="6064"></path></svg>