<?xml version="1.0" standalone="no"?><!DOCTYPE svg PUBLIC "-//W3C//DTD SVG 1.1//EN" "http://www.w3.org/Graphics/SVG/1.1/DTD/svg11.dtd"><svg t="1511083372025" class="icon" style="" viewBox="0 0 1024 1024" version="1.1" xmlns="http://www.w3.org/2000/svg" p-id="5178" xmlns:xlink="http://www.w3.org/1999/xlink" width="64" height="64"><defs><style type="text/css"></style></defs><path d="M932.770909 497.105455c11.170909-126.603636-31.650909-251.345455-122.88-342.574546C729.832727 74.472727 621.847273 29.789091 508.276364 29.789091S286.72 74.472727 206.661818 154.530909c-40.96 40.96-70.749091 87.505455-93.090909 139.636364-3.723636 3.723636-5.585455 9.309091-5.585454 14.894545-16.756364 46.545455-26.065455 96.814545-26.065455 147.083637 0 93.090909 29.789091 180.596364 83.781818 253.207272l-132.189091 132.189091c-14.894545 16.756364-24.203636 37.236364-24.203636 59.578182 0 22.341818 9.309091 44.683636 24.203636 59.578182 16.756364 16.756364 39.098182 24.203636 59.578182 24.203636s42.821818-7.447273 57.716364-27.927273l135.912727-135.912727c65.163636 40.96 141.498182 61.44 221.556364 61.44 113.570909 0 219.694545-44.683636 301.614545-124.741818 5.585455-5.585455 11.170909-11.170909 14.894546-16.756364 16.756364 7.447273 35.374545 13.032727 55.854545 13.032728 74.472727 0 134.050909-59.578182 134.050909-134.050909 0-53.992727-33.512727-102.4-81.92-122.88zM124.741818 930.909091c-18.618182 18.618182-46.545455 18.618182-65.163636 0-7.447273-7.447273-13.032727-18.618182-13.032727-31.650909 0-11.170909 3.723636-22.341818 13.032727-31.650909l128.465454-128.465455c5.585455 7.447273 11.170909 13.032727 18.618182 18.618182 14.894545 14.894545 31.650909 29.789091 50.269091 40.96L124.741818 930.909091z m107.985455-199.214546c-72.610909-74.472727-113.570909-171.287273-113.570909-275.54909 0-39.098182 5.585455-76.334545 16.756363-113.57091l485.934546 485.934546c-132.189091 40.96-282.996364 9.309091-389.12-96.814546z m551.098182 0c-37.236364 37.236364-78.196364 63.301818-122.88 83.781819L150.807273 305.338182c18.618182-44.683636 46.545455-87.505455 81.92-124.741818 72.610909-74.472727 171.287273-111.709091 275.549091-111.709091 104.261818 0 201.076364 39.098182 275.549091 113.570909 81.92 81.92 121.018182 191.767273 111.70909 307.2-5.585455 0-9.309091-1.861818-14.894545-1.861818-74.472727 0-134.050909 61.44-134.050909 134.050909 0 39.098182 18.618182 74.472727 46.545454 98.676363-3.723636 3.723636-5.585455 7.447273-9.30909 11.170909z m96.814545-14.894545c-53.992727 0-96.814545-40.96-96.814545-94.952727 0-53.992727 44.683636-96.814545 96.814545-96.814546 9.309091 0 18.618182 1.861818 26.065455 3.723637 40.96 11.170909 70.749091 50.269091 70.74909 93.090909 0 52.130909-42.821818 94.952727-96.814545 94.952727z" p-id="5179" fill="#8a8a8a"></path></svg>